<svg width="16" height="16" viewBox="0 0 16 16" fill="none" xmlns="http://www.w3.org/2000/svg">
<g id="box-select">
<path id="Vector" d="M3.33333 2C2.97971 2 2.64057 2.14048 2.39052 2.39052C2.14048 2.64057 2 2.97971 2 3.33333" stroke="white" stroke-linecap="round" stroke-linejoin="round"/>
<path id="Vector_2" d="M12.6667 2C13.0204 2 13.3595 2.14048 13.6096 2.39052C13.8596 2.64057 14.0001 2.97971 14.0001 3.33333" stroke="white" stroke-linecap="round" stroke-linejoin="round"/>
<path id="Vector_3" d="M14.0001 12.6667C14.0001 13.0203 13.8596 13.3594 13.6096 13.6095C13.3595 13.8595 13.0204 14 12.6667 14" stroke="white" stroke-linecap="round" stroke-linejoin="round"/>
<path id="Vector_4" d="M3.33333 14C2.97971 14 2.64057 13.8595 2.39052 13.6095C2.14048 13.3594 2 13.0203 2 12.6667" stroke="white" stroke-linecap="round" stroke-linejoin="round"/>
<path id="Vector_5" d="M6 2H6.66667" stroke="white" stroke-linecap="round" stroke-linejoin="round"/>
<path id="Vector_6" d="M6 14H6.66667" stroke="white" stroke-linecap="round" stroke-linejoin="round"/>
<path id="Vector_7" d="M9.33325 2H9.99992" stroke="white" stroke-linecap="round" stroke-linejoin="round"/>
<path id="Vector_8" d="M9.33325 14H9.99992" stroke="white" stroke-linecap="round" stroke-linejoin="round"/>
<path id="Vector_9" d="M2 6V6.66667" stroke="white" stroke-linecap="round" stroke-linejoin="round"/>
<path id="Vector_10" d="M14 6V6.66667" stroke="white" stroke-linecap="round" stroke-linejoin="round"/>
<path id="Vector_11" d="M2 9.33334V10" stroke="white" stroke-linecap="round" stroke-linejoin="round"/>
<path id="Vector_12" d="M14 9.33334V10" stroke="white" stroke-linecap="round" stroke-linejoin="round"/>
</g>
</svg>
