<svg width="26" height="26" viewBox="0 0 26 26" fill="none" xmlns="http://www.w3.org/2000/svg">
<g id="circle-check">
<path id="Icon" d="M12.9998 4.33332C8.21337 4.33332 4.33317 8.21352 4.33317 13C4.33317 17.7865 8.21337 21.6667 12.9998 21.6667C17.7863 21.6667 21.6665 17.7865 21.6665 13C21.6665 8.21352 17.7863 4.33332 12.9998 4.33332ZM2.1665 13C2.1665 7.0169 7.01675 2.16666 12.9998 2.16666C18.9829 2.16666 23.8332 7.0169 23.8332 13C23.8332 18.9831 18.9829 23.8333 12.9998 23.8333C7.01675 23.8333 2.1665 18.9831 2.1665 13ZM18.0529 9.48196C18.5001 9.87946 18.5404 10.5642 18.1429 11.0114L12.3651 17.5114C12.1595 17.7427 11.8648 17.875 11.5554 17.875C11.246 17.875 10.9513 17.7427 10.7457 17.5114L7.85681 14.2614C7.45932 13.8142 7.49959 13.1295 7.94678 12.732C8.39396 12.3345 9.0787 12.3747 9.4762 12.8219L11.5554 15.161L16.5235 9.57193C16.921 9.12475 17.6057 9.08447 18.0529 9.48196Z" fill="white"/>
</g>
</svg>
