<svg width="20" height="20" viewBox="0 0 20 20" fill="none" xmlns="http://www.w3.org/2000/svg">
<g id="container">
<path id="Vector" d="M18.3334 6.41666C18.3334 5.91666 18.0001 5.41666 17.6667 5.16666L12.4167 1.91666C12.2008 1.79393 11.9568 1.7294 11.7084 1.7294C11.4601 1.7294 11.216 1.79393 11.0001 1.91666L2.41675 6.91666C2.00008 7.08332 1.66675 7.58332 1.66675 8.08332V13.5833C1.66675 14 2.00008 14.5833 2.33341 14.8333L7.58342 18.0833C7.79932 18.2061 8.0434 18.2706 8.29175 18.2706C8.54009 18.2706 8.78418 18.2061 9.00008 18.0833L17.5834 13.0833C18.0001 12.8333 18.3334 12.25 18.3334 11.8333V6.41666Z" stroke="white" stroke-linecap="round" stroke-linejoin="round"/>
<path id="Vector_2" d="M8.33333 18.25V11.6666L1.75 7.58331" stroke="white" stroke-linecap="round" stroke-linejoin="round"/>
<path id="Vector_3" d="M8.33325 11.6667L18.2499 5.91666" stroke="white" stroke-linecap="round" stroke-linejoin="round"/>
<path id="Vector_4" d="M11.6667 16.5V9.74998" stroke="white" stroke-linecap="round" stroke-linejoin="round"/>
<path id="Vector_5" d="M15 14.5833V7.83331" stroke="white" stroke-linecap="round" stroke-linejoin="round"/>
</g>
</svg>
