<svg width="24" height="24" viewBox="0 0 24 24" fill="none" xmlns="http://www.w3.org/2000/svg">
<g id="dog">
<path id="Vector" d="M9.99998 5.17187C9.99998 3.78187 8.42298 2.67887 6.49998 2.99987C3.67698 3.46987 2.38698 9.00587 2.49998 9.99987C2.57998 10.7029 4.22498 11.7219 6.15598 10.9999C7.41698 10.5279 8.11598 9.54987 8.49998 8.49987" stroke="white" stroke-linecap="round" stroke-linejoin="round"/>
<path id="Vector_2" d="M14.267 5.17187C14.267 3.78187 15.844 2.67887 17.767 2.99987C20.59 3.46987 21.88 9.00587 21.767 9.99987C21.687 10.7029 20.042 11.7219 18.111 10.9999C16.85 10.5279 16.256 9.54987 15.872 8.49987" stroke="white" stroke-linecap="round" stroke-linejoin="round"/>
<path id="Vector_3" d="M8 14V14.5" stroke="white" stroke-linecap="round" stroke-linejoin="round"/>
<path id="Vector_4" d="M16 14V14.5" stroke="white" stroke-linecap="round" stroke-linejoin="round"/>
<path id="Vector_5" d="M11.25 16.25H12.75L12 17L11.25 16.25Z" stroke="white" stroke-linecap="round" stroke-linejoin="round"/>
<path id="Vector_6" d="M4.42001 11.2471C4.14014 12.3278 3.999 13.4397 4.00001 14.5561C4.00001 18.7281 7.58201 21.0001 12 21.0001C16.418 21.0001 20 18.7281 20 14.5561C20 13.4951 19.838 12.3561 19.507 11.2471M10.264 5.16509C10.8358 5.05275 11.4173 4.99748 12 5.00009C12.78 5.00009 13.5 5.10809 14.161 5.30609" stroke="white" stroke-linecap="round" stroke-linejoin="round"/>
</g>
</svg>
