<svg width="20" height="20" viewBox="0 0 20 20" fill="none" xmlns="http://www.w3.org/2000/svg">
<g id="flame">
<path id="Vector" d="M7.08341 12.0833C7.63595 12.0833 8.16585 11.8638 8.55655 11.4731C8.94725 11.0824 9.16675 10.5525 9.16675 9.99999C9.16675 8.84999 8.75008 8.33332 8.33341 7.49998C7.44008 5.71415 8.14675 4.12165 10.0001 2.49998C10.4167 4.58332 11.6667 6.58332 13.3334 7.91665C15.0001 9.24999 15.8334 10.8333 15.8334 12.5C15.8334 13.266 15.6825 14.0246 15.3894 14.7323C15.0962 15.44 14.6665 16.0831 14.1249 16.6248C13.5832 17.1664 12.9401 17.5961 12.2324 17.8893C11.5247 18.1824 10.7661 18.3333 10.0001 18.3333C9.23404 18.3333 8.47549 18.1824 7.76776 17.8893C7.06003 17.5961 6.41697 17.1664 5.87529 16.6248C5.33362 16.0831 4.90394 15.44 4.61078 14.7323C4.31763 14.0246 4.16675 13.266 4.16675 12.5C4.16675 11.5392 4.52758 10.5883 5.00008 9.99999C5.00008 10.5525 5.21957 11.0824 5.61028 11.4731C6.00098 11.8638 6.53088 12.0833 7.08341 12.0833Z" stroke="white" stroke-linecap="round" stroke-linejoin="round"/>
</g>
</svg>
