<svg width="1045" height="709" viewBox="0 0 1045 709" fill="none" xmlns="http://www.w3.org/2000/svg">
<rect width="1045" height="709" fill="#454545"/>
<rect width="1045" height="709" rx="13" fill="black" fill-opacity="0.3"/>
<rect x="0.5" y="0.5" width="1044" height="708" rx="12.5" stroke="white" stroke-opacity="0.3"/>
<path opacity="0.5" d="M429.765 344.103V320.802H433.096V330.456H443.618V320.802H446.95V344.103H443.618V333.635H433.096V344.103H429.765ZM460.045 344.503C458.473 344.503 457.115 344.126 455.971 343.371C454.839 342.617 453.965 341.568 453.349 340.225C452.744 338.883 452.442 337.335 452.442 335.582C452.442 333.718 452.755 332.126 453.382 330.805C454.02 329.474 454.905 328.458 456.037 327.759C457.181 327.049 458.517 326.694 460.045 326.694C461.342 326.694 462.524 326.983 463.591 327.56C464.668 328.125 465.526 329.008 466.164 330.206C466.812 331.393 467.137 332.919 467.137 334.783C467.137 335.049 467.126 335.371 467.104 335.748C467.093 336.114 467.065 336.492 467.021 336.88H455.757C455.845 337.823 456.07 338.655 456.433 339.377C456.807 340.087 457.302 340.642 457.917 341.041C458.533 341.44 459.259 341.64 460.094 341.64C460.831 341.64 461.502 341.513 462.106 341.257C462.711 340.991 463.277 340.581 463.805 340.026L465.718 342.106C465.059 342.805 464.25 343.382 463.294 343.837C462.337 344.281 461.254 344.503 460.045 344.503ZM455.74 334.117H463.871C463.849 333.218 463.684 332.431 463.376 331.754C463.08 331.066 462.645 330.528 462.073 330.139C461.513 329.751 460.825 329.557 460.012 329.557C458.879 329.557 457.906 329.923 457.093 330.655C456.279 331.388 455.828 332.542 455.74 334.117ZM480.769 344.403L476.25 335.449C476.085 335.105 475.926 334.772 475.772 334.45C475.629 334.117 475.481 333.768 475.327 333.402C475.36 333.668 475.387 333.978 475.409 334.334C475.431 334.677 475.442 335.033 475.442 335.399V344.103H472.193V327.094H475.178L480.076 336.863C480.241 337.207 480.379 337.496 480.489 337.729C480.599 337.951 480.692 338.156 480.769 338.345C480.846 338.156 480.934 337.951 481.033 337.729C481.143 337.496 481.286 337.207 481.462 336.863L486.36 327.094H489.345V344.103H486.096V335.682C486.096 335.316 486.107 334.944 486.129 334.567C486.151 334.178 486.173 333.851 486.195 333.585C486.052 333.951 485.904 334.3 485.75 334.633C485.596 334.966 485.426 335.305 485.239 335.648L480.769 344.403ZM500.348 344.503C498.512 344.503 497.066 343.998 496.011 342.988C494.966 341.967 494.444 340.581 494.444 338.827C494.444 337.696 494.708 336.708 495.235 335.865C495.763 335.022 496.505 334.372 497.462 333.917C498.429 333.451 499.562 333.218 500.859 333.218C501.651 333.218 502.398 333.302 503.102 333.468C503.817 333.635 504.471 333.884 505.065 334.217V333.069C505.065 331.87 504.779 330.988 504.207 330.422C503.635 329.845 502.761 329.557 501.585 329.557C500.771 329.557 499.93 329.707 499.062 330.006C498.204 330.306 497.374 330.728 496.571 331.271L495.615 328.558C496.505 327.97 497.506 327.515 498.616 327.193C499.738 326.861 500.854 326.694 501.964 326.694C504.053 326.694 505.614 327.216 506.648 328.259C507.692 329.302 508.215 330.861 508.215 332.936V344.103H505.065V342.605C504.438 343.216 503.718 343.687 502.904 344.02C502.091 344.342 501.239 344.503 500.348 344.503ZM500.942 341.64C501.689 341.64 502.42 341.468 503.135 341.124C503.861 340.769 504.504 340.275 505.065 339.643V337.013C504.537 336.703 503.938 336.458 503.267 336.281C502.596 336.103 501.953 336.015 501.338 336.015C500.172 336.015 499.254 336.27 498.583 336.78C497.913 337.28 497.577 337.968 497.577 338.844C497.577 339.709 497.874 340.392 498.468 340.891C499.062 341.391 499.886 341.64 500.942 341.64ZM520.172 344.503C517.962 344.503 516.208 343.721 514.911 342.156C513.625 340.592 512.982 338.411 512.982 335.615C512.982 332.83 513.63 330.65 514.928 329.074C516.236 327.487 518.023 326.694 520.288 326.694C521.783 326.694 523.069 327.038 524.147 327.726C525.224 328.414 526.005 329.446 526.489 330.822L523.471 331.92C523.24 331.277 522.866 330.728 522.349 330.273C521.832 329.818 521.167 329.59 520.354 329.59C519.474 329.59 518.732 329.829 518.127 330.306C517.533 330.783 517.077 331.471 516.758 332.37C516.45 333.268 516.296 334.35 516.296 335.615C516.296 336.902 516.45 337.99 516.758 338.877C517.077 339.765 517.528 340.436 518.111 340.891C518.704 341.335 519.414 341.557 520.238 341.557C521.074 341.557 521.783 341.335 522.366 340.891C522.959 340.436 523.377 339.826 523.619 339.06L526.588 340.042C526.159 341.474 525.384 342.578 524.262 343.354C523.152 344.12 521.788 344.503 520.172 344.503ZM514.499 336.963V334.2H522.333V336.963H514.499ZM556.568 344.503C555.622 344.503 554.82 344.303 554.16 343.904C553.511 343.504 552.96 343.011 552.511 342.422V338.861C552.851 339.626 553.352 340.236 554.012 340.691C554.682 341.146 555.381 341.374 556.106 341.374C557.271 341.374 558.172 340.847 558.811 339.793C559.448 338.728 559.768 337.324 559.768 335.582C559.768 333.718 559.458 332.286 558.844 331.288C558.228 330.289 557.314 329.79 556.106 329.79C555.513 329.79 554.979 329.912 554.506 330.156C554.045 330.389 553.643 330.683 553.303 331.038C552.96 331.393 552.696 331.743 552.511 332.087V328.675C552.927 328.12 553.478 327.654 554.16 327.277C554.84 326.888 555.649 326.694 556.585 326.694C558.564 326.694 560.141 327.471 561.318 329.024C562.493 330.578 563.082 332.763 563.082 335.582C563.082 337.413 562.819 338.999 562.291 340.342C561.763 341.673 561.009 342.7 560.031 343.421C559.052 344.142 557.898 344.503 556.568 344.503ZM545.667 344.503C544.325 344.503 543.164 344.148 542.187 343.438C541.218 342.728 540.472 341.707 539.944 340.375C539.426 339.033 539.169 337.435 539.169 335.582C539.169 333.729 539.437 332.142 539.977 330.822C540.525 329.49 541.284 328.469 542.253 327.759C543.23 327.049 544.374 326.694 545.683 326.694C546.617 326.694 547.419 326.888 548.091 327.277C548.761 327.665 549.311 328.12 549.74 328.641V332.053C549.563 331.732 549.305 331.399 548.965 331.055C548.635 330.7 548.233 330.4 547.761 330.156C547.287 329.912 546.749 329.79 546.145 329.79C544.957 329.79 544.05 330.289 543.424 331.288C542.797 332.286 542.484 333.718 542.484 335.582C542.484 337.324 542.797 338.728 543.424 339.793C544.061 340.847 544.968 341.374 546.145 341.374C546.871 341.374 547.557 341.152 548.206 340.708C548.866 340.253 549.377 339.621 549.74 338.811V342.389C549.322 342.999 548.777 343.504 548.107 343.904C547.435 344.303 546.623 344.503 545.667 344.503ZM549.476 350.794V321.967L552.775 320.403V349.23L549.476 350.794ZM574.922 344.503C572.59 344.503 570.753 343.71 569.413 342.123C568.071 340.525 567.401 338.356 567.401 335.615C567.401 333.784 567.702 332.203 568.308 330.872C568.923 329.54 569.793 328.514 570.914 327.793C572.046 327.06 573.382 326.694 574.922 326.694C576.472 326.694 577.808 327.055 578.93 327.776C580.061 328.486 580.929 329.507 581.535 330.838C582.139 332.17 582.442 333.751 582.442 335.582C582.442 337.424 582.133 339.01 581.519 340.342C580.913 341.673 580.051 342.7 578.93 343.421C577.808 344.142 576.472 344.503 574.922 344.503ZM574.922 341.374C576.241 341.374 577.268 340.864 578.006 339.843C578.752 338.822 579.127 337.402 579.127 335.582C579.127 333.762 578.752 332.342 578.006 331.321C577.268 330.3 576.241 329.79 574.922 329.79C573.603 329.79 572.568 330.3 571.821 331.321C571.083 332.342 570.716 333.773 570.716 335.615C570.716 337.424 571.083 338.838 571.821 339.859C572.568 340.869 573.603 341.374 574.922 341.374ZM590.884 344.103V329.99H585.871V327.094H599.164V329.99H594.166V344.103H590.884ZM610.127 344.503C607.797 344.503 605.96 343.71 604.618 342.123C603.278 340.525 602.606 338.356 602.606 335.615C602.606 333.784 602.909 332.203 603.513 330.872C604.13 329.54 604.998 328.514 606.119 327.793C607.253 327.06 608.589 326.694 610.127 326.694C611.677 326.694 613.013 327.055 614.134 327.776C615.268 328.486 616.136 329.507 616.74 330.838C617.346 332.17 617.647 333.751 617.647 335.582C617.647 337.424 617.34 339.01 616.724 340.342C616.12 341.673 615.256 342.7 614.134 343.421C613.013 344.142 611.677 344.503 610.127 344.503ZM610.127 341.374C611.446 341.374 612.475 340.864 613.211 339.843C613.959 338.822 614.332 337.402 614.332 335.582C614.332 333.762 613.959 332.342 613.211 331.321C612.475 330.3 611.446 329.79 610.127 329.79C608.807 329.79 607.775 330.3 607.026 331.321C606.29 332.342 605.921 333.773 605.921 335.615C605.921 337.424 606.29 338.838 607.026 339.859C607.775 340.869 608.807 341.374 610.127 341.374Z" fill="white"/>
<path opacity="0.3" d="M339.43 381.552V364.076H345.565C346.934 364.076 348.01 364.301 348.794 364.75C349.577 365.191 350.134 365.765 350.464 366.473C350.793 367.18 350.958 367.921 350.958 368.694C350.958 369.493 350.736 370.213 350.29 370.854C349.845 371.495 349.218 371.99 348.41 372.339C349.078 372.547 349.647 372.855 350.117 373.263C350.595 373.663 350.958 374.141 351.206 374.699C351.453 375.256 351.577 375.868 351.577 376.534C351.577 377.124 351.482 377.715 351.292 378.306C351.103 378.897 350.789 379.438 350.352 379.929C349.923 380.42 349.346 380.815 348.62 381.115C347.903 381.406 347.017 381.552 345.961 381.552H339.43ZM341.582 379.554H346.208C347.058 379.554 347.718 379.413 348.188 379.13C348.658 378.847 348.983 378.485 349.165 378.044C349.354 377.603 349.449 377.149 349.449 376.683C349.449 376.126 349.338 375.602 349.115 375.111C348.893 374.62 348.489 374.224 347.903 373.925C347.326 373.617 346.497 373.463 345.417 373.463H341.582V379.554ZM341.582 371.491H345.145C346.373 371.491 347.293 371.237 347.903 370.729C348.522 370.222 348.831 369.552 348.831 368.719C348.831 368.295 348.748 367.879 348.583 367.471C348.427 367.055 348.122 366.714 347.668 366.448C347.215 366.181 346.555 366.048 345.689 366.048H341.582V371.491ZM355.344 381.851L354.33 380.204C355.162 380.104 355.768 379.862 356.148 379.48C356.535 379.097 356.77 378.489 356.853 377.657L357.818 368.794H366.847V381.552H364.695V370.692H359.797L358.956 378.007C358.832 379.08 358.465 379.941 357.855 380.591C357.245 381.24 356.408 381.66 355.344 381.851ZM375.189 381.851C373.82 381.851 372.744 381.468 371.96 380.703C371.177 379.937 370.785 378.889 370.785 377.557C370.785 376.7 370.979 375.955 371.366 375.323C371.754 374.69 372.302 374.204 373.012 373.862C373.721 373.513 374.554 373.338 375.51 373.338C376.129 373.338 376.706 373.409 377.242 373.55C377.786 373.683 378.297 373.887 378.776 374.162V373.263C378.776 372.273 378.553 371.549 378.108 371.091C377.662 370.625 376.97 370.392 376.03 370.392C375.428 370.392 374.801 370.504 374.15 370.729C373.506 370.954 372.904 371.266 372.344 371.665L371.725 369.843C372.36 369.418 373.082 369.09 373.89 368.857C374.706 368.615 375.51 368.495 376.302 368.495C377.803 368.495 378.928 368.882 379.679 369.656C380.429 370.421 380.804 371.565 380.804 373.088V381.552H378.776V380.378C378.281 380.853 377.724 381.219 377.106 381.477C376.487 381.726 375.848 381.851 375.189 381.851ZM375.51 379.954C376.096 379.954 376.673 379.808 377.242 379.517C377.819 379.226 378.33 378.814 378.776 378.281V376.084C378.355 375.818 377.877 375.61 377.341 375.46C376.805 375.31 376.294 375.235 375.807 375.235C374.883 375.235 374.154 375.448 373.618 375.872C373.082 376.288 372.814 376.858 372.814 377.582C372.814 378.315 373.053 378.893 373.531 379.317C374.009 379.742 374.669 379.954 375.51 379.954ZM389.715 381.851C388.627 381.851 387.691 381.585 386.907 381.052C386.124 380.511 385.522 379.746 385.101 378.756C384.681 377.757 384.471 376.567 384.471 375.185C384.471 373.796 384.685 372.602 385.114 371.603C385.543 370.604 386.153 369.839 386.944 369.306C387.744 368.765 388.701 368.495 389.814 368.495C390.903 368.495 391.826 368.749 392.585 369.256C393.344 369.764 393.896 370.5 394.242 371.466L392.214 372.215C392.008 371.665 391.698 371.245 391.286 370.954C390.882 370.663 390.4 370.517 389.839 370.517C388.816 370.517 388.033 370.916 387.489 371.715C386.944 372.514 386.672 373.671 386.672 375.185C386.672 376.667 386.94 377.807 387.476 378.606C388.012 379.405 388.775 379.804 389.765 379.804C390.4 379.804 390.94 379.638 391.385 379.305C391.839 378.972 392.156 378.506 392.337 377.907L394.341 378.581C394.036 379.629 393.48 380.437 392.671 381.002C391.863 381.568 390.878 381.851 389.715 381.851ZM398.125 381.552V368.794H400.277V374.037H406.536V368.794H408.688V381.552H406.536V375.934H400.277V381.552H398.125ZM413.381 381.552V368.794H415.533V377.732L421.668 368.794H423.82V381.552H421.668V372.639L415.533 381.552H413.381ZM429.604 380.104V377.233L436.209 368.794H438.634L429.604 380.104ZM428.516 381.552V368.794H430.668V381.552H428.516ZM437.224 381.552L433.191 374.037L434.626 372.265L439.648 381.552H437.224ZM449.46 381.552V368.794H455.15C455.991 368.794 456.709 368.936 457.302 369.219C457.896 369.493 458.35 369.884 458.663 370.392C458.976 370.891 459.133 371.482 459.133 372.165C459.133 372.772 458.976 373.317 458.663 373.8C458.358 374.274 457.921 374.62 457.352 374.836C458.094 375.069 458.655 375.439 459.034 375.947C459.413 376.446 459.603 377.066 459.603 377.807C459.603 378.539 459.442 379.188 459.121 379.754C458.799 380.312 458.325 380.753 457.698 381.077C457.08 381.394 456.321 381.552 455.422 381.552H449.46ZM451.612 379.654H455.299C455.744 379.654 456.123 379.584 456.436 379.442C456.75 379.292 456.989 379.08 457.154 378.805C457.319 378.523 457.401 378.181 457.401 377.782C457.401 377.382 457.298 377.045 457.092 376.771C456.894 376.496 456.597 376.288 456.201 376.147C455.814 376.005 455.331 375.934 454.754 375.934H451.612V379.654ZM451.612 374.037H454.581C455.348 374.037 455.929 373.9 456.325 373.625C456.729 373.342 456.931 372.947 456.931 372.439C456.931 372.073 456.853 371.761 456.696 371.503C456.54 371.237 456.309 371.037 456.004 370.904C455.707 370.762 455.348 370.692 454.927 370.692H451.612V374.037ZM463.774 381.552V368.794H465.926V377.732L472.061 368.794H474.213V381.552H472.061V372.639L465.926 381.552H463.774ZM478.909 386.62V368.794H481.061V369.868C481.968 368.952 483.048 368.495 484.302 368.495C485.374 368.495 486.297 368.765 487.072 369.306C487.856 369.847 488.458 370.617 488.878 371.615C489.307 372.614 489.521 373.796 489.521 375.161C489.521 376.525 489.307 377.711 488.878 378.718C488.449 379.717 487.843 380.491 487.06 381.04C486.285 381.581 485.365 381.851 484.302 381.851C483.634 381.851 483.032 381.731 482.496 381.489C481.96 381.24 481.481 380.861 481.061 380.353V385.596L478.909 386.62ZM484.03 379.829C485.093 379.829 485.906 379.425 486.466 378.618C487.035 377.811 487.32 376.658 487.32 375.161C487.32 373.721 487.023 372.585 486.429 371.753C485.835 370.912 485.036 370.492 484.03 370.492C483.386 370.492 482.809 370.642 482.298 370.941C481.787 371.241 481.374 371.665 481.061 372.215V378.106C481.498 378.681 481.964 379.113 482.459 379.405C482.953 379.688 483.477 379.829 484.03 379.829ZM493.416 381.552V368.794H495.568V381.552H493.416ZM494.48 366.473C494.109 366.473 493.791 366.344 493.527 366.086C493.272 365.819 493.144 365.499 493.144 365.124C493.144 364.733 493.272 364.405 493.527 364.138C493.791 363.864 494.109 363.726 494.48 363.726C494.867 363.726 495.189 363.864 495.445 364.138C495.709 364.405 495.841 364.733 495.841 365.124C495.841 365.499 495.709 365.819 495.445 366.086C495.189 366.344 494.867 366.473 494.48 366.473ZM500.167 381.552V368.794H502.32V379.654H507.094V368.794H509.246V379.654H514.021V368.794H516.173V381.552H500.167ZM520.883 381.552V368.794H523.035V377.732L529.17 368.794H531.322V381.552H529.17V372.639L523.035 381.552H520.883ZM536.019 381.552V368.794H541.709C542.55 368.794 543.267 368.936 543.861 369.219C544.454 369.493 544.908 369.884 545.221 370.392C545.535 370.891 545.691 371.482 545.691 372.165C545.691 372.772 545.535 373.317 545.221 373.8C544.916 374.274 544.479 374.62 543.91 374.836C544.652 375.069 545.213 375.439 545.592 375.947C545.972 376.446 546.161 377.066 546.161 377.807C546.161 378.539 546.001 379.188 545.679 379.754C545.357 380.312 544.883 380.753 544.257 381.077C543.638 381.394 542.879 381.552 541.981 381.552H536.019ZM538.171 379.654H541.857C542.302 379.654 542.682 379.584 542.995 379.442C543.308 379.292 543.547 379.08 543.712 378.805C543.877 378.523 543.96 378.181 543.96 377.782C543.96 377.382 543.857 377.045 543.65 376.771C543.453 376.496 543.156 376.288 542.76 376.147C542.372 376.005 541.89 375.934 541.313 375.934H538.171V379.654ZM538.171 374.037H541.14C541.906 374.037 542.488 373.9 542.884 373.625C543.288 373.342 543.49 372.947 543.49 372.439C543.49 372.073 543.411 371.761 543.255 371.503C543.098 371.237 542.867 371.037 542.562 370.904C542.265 370.762 541.906 370.692 541.486 370.692H538.171V374.037ZM556.624 381.552V368.794H558.776V374.037H565.035V368.794H567.187V381.552H565.035V375.934H558.776V381.552H556.624ZM576.68 381.851C575.526 381.851 574.528 381.564 573.687 380.99C572.846 380.416 572.199 379.625 571.745 378.618C571.292 377.611 571.065 376.459 571.065 375.161C571.065 373.754 571.3 372.556 571.77 371.565C572.24 370.567 572.895 369.805 573.737 369.281C574.578 368.757 575.559 368.495 576.68 368.495C577.629 368.495 578.499 368.711 579.29 369.144C580.082 369.568 580.713 370.23 581.183 371.129C581.661 372.019 581.9 373.163 581.9 374.561C581.9 374.761 581.892 374.994 581.876 375.26C581.867 375.518 581.851 375.785 581.826 376.059H573.267C573.349 376.833 573.539 377.511 573.836 378.094C574.132 378.676 574.524 379.134 575.011 379.467C575.497 379.792 576.07 379.954 576.73 379.954C577.266 379.954 577.761 379.858 578.214 379.667C578.676 379.475 579.105 379.18 579.501 378.781L580.762 380.204C580.292 380.678 579.707 381.073 579.006 381.389C578.313 381.697 577.538 381.851 576.68 381.851ZM573.242 374.162H579.723C579.723 373.438 579.604 372.793 579.365 372.227C579.134 371.653 578.791 371.203 578.338 370.879C577.884 370.554 577.332 370.392 576.68 370.392C575.765 370.392 574.978 370.692 574.318 371.291C573.666 371.89 573.308 372.847 573.242 374.162ZM590.619 385.621V379.654H591.93C592.276 379.48 592.565 379.201 592.796 378.818C593.026 378.427 593.175 377.915 593.241 377.283L594.131 368.794H603.161V379.654H605.313V384.747L603.161 385.621V381.552H592.771V384.747L590.619 385.621ZM594.676 379.654H601.009V370.692H596.086L595.319 377.607C595.269 378.04 595.187 378.427 595.071 378.768C594.956 379.109 594.824 379.405 594.676 379.654ZM613.726 381.851C611.995 381.851 610.63 381.256 609.632 380.066C608.634 378.868 608.135 377.241 608.135 375.185C608.135 373.812 608.362 372.627 608.816 371.628C609.269 370.629 609.912 369.86 610.745 369.319C611.586 368.769 612.58 368.495 613.726 368.495C614.881 368.495 615.874 368.765 616.707 369.306C617.548 369.839 618.192 370.604 618.637 371.603C619.09 372.602 619.317 373.787 619.317 375.161C619.317 376.534 619.09 377.724 618.637 378.731C618.183 379.729 617.536 380.499 616.695 381.04C615.862 381.581 614.873 381.851 613.726 381.851ZM613.726 379.829C614.79 379.829 615.623 379.417 616.225 378.593C616.835 377.761 617.14 376.617 617.14 375.161C617.14 373.696 616.835 372.552 616.225 371.728C615.623 370.904 614.79 370.492 613.726 370.492C612.654 370.492 611.817 370.904 611.215 371.728C610.613 372.543 610.312 373.696 610.312 375.185C610.312 376.642 610.613 377.782 611.215 378.606C611.817 379.421 612.654 379.829 613.726 379.829ZM621.952 385.621V379.654H623.263C623.609 379.48 623.898 379.201 624.129 378.818C624.36 378.427 624.508 377.915 624.574 377.283L625.465 368.794H634.494V379.654H636.646V384.747L634.494 385.621V381.552H624.104V384.747L621.952 385.621ZM626.009 379.654H632.342V370.692H627.419L626.652 377.607C626.603 378.04 626.52 378.427 626.405 378.768C626.289 379.109 626.157 379.405 626.009 379.654ZM644.041 381.851C642.672 381.851 641.596 381.468 640.813 380.703C640.029 379.937 639.638 378.889 639.638 377.557C639.638 376.7 639.832 375.955 640.219 375.323C640.607 374.69 641.155 374.204 641.864 373.862C642.573 373.513 643.406 373.338 644.363 373.338C644.981 373.338 645.559 373.409 646.095 373.55C646.639 373.683 647.15 373.887 647.628 374.162V373.263C647.628 372.273 647.406 371.549 646.96 371.091C646.515 370.625 645.822 370.392 644.882 370.392C644.28 370.392 643.654 370.504 643.002 370.729C642.359 370.954 641.757 371.266 641.196 371.665L640.578 369.843C641.213 369.418 641.934 369.09 642.742 368.857C643.559 368.615 644.363 368.495 645.154 368.495C646.655 368.495 647.781 368.882 648.531 369.656C649.282 370.421 649.657 371.565 649.657 373.088V381.552H647.628V380.378C647.134 380.853 646.577 381.219 645.958 381.477C645.34 381.726 644.701 381.851 644.041 381.851ZM644.363 379.954C644.948 379.954 645.526 379.808 646.095 379.517C646.672 379.226 647.183 378.814 647.628 378.281V376.084C647.208 375.818 646.729 375.61 646.193 375.46C645.657 375.31 645.146 375.235 644.66 375.235C643.736 375.235 643.006 375.448 642.47 375.872C641.934 376.288 641.666 376.858 641.666 377.582C641.666 378.315 641.905 378.893 642.384 379.317C642.862 379.742 643.522 379.954 644.363 379.954ZM654.064 381.552V368.794H659.754C660.595 368.794 661.313 368.936 661.907 369.219C662.5 369.493 662.954 369.884 663.267 370.392C663.58 370.891 663.737 371.482 663.737 372.165C663.737 372.772 663.58 373.317 663.267 373.8C662.962 374.274 662.525 374.62 661.956 374.836C662.698 375.069 663.259 375.439 663.638 375.947C664.018 376.446 664.207 377.066 664.207 377.807C664.207 378.539 664.046 379.188 663.725 379.754C663.403 380.312 662.929 380.753 662.302 381.077C661.684 381.394 660.925 381.552 660.026 381.552H654.064ZM656.217 379.654H659.903C660.348 379.654 660.727 379.584 661.041 379.442C661.354 379.292 661.593 379.08 661.758 378.805C661.923 378.523 662.005 378.181 662.005 377.782C662.005 377.382 661.902 377.045 661.696 376.771C661.498 376.496 661.201 376.288 660.806 376.147C660.418 376.005 659.936 375.934 659.358 375.934H656.217V379.654ZM656.217 374.037H659.185C659.952 374.037 660.534 373.9 660.929 373.625C661.333 373.342 661.535 372.947 661.535 372.439C661.535 372.073 661.457 371.761 661.3 371.503C661.144 371.237 660.913 371.037 660.608 370.904C660.311 370.762 659.952 370.692 659.532 370.692H656.217V374.037ZM672.136 381.851C670.767 381.851 669.691 381.468 668.908 380.703C668.124 379.937 667.732 378.889 667.732 377.557C667.732 376.7 667.926 375.955 668.314 375.323C668.701 374.69 669.25 374.204 669.959 373.862C670.668 373.513 671.501 373.338 672.457 373.338C673.076 373.338 673.653 373.409 674.189 373.55C674.733 373.683 675.245 373.887 675.723 374.162V373.263C675.723 372.273 675.5 371.549 675.055 371.091C674.61 370.625 673.917 370.392 672.977 370.392C672.375 370.392 671.748 370.504 671.097 370.729C670.454 370.954 669.852 371.266 669.291 371.665L668.672 369.843C669.307 369.418 670.029 369.09 670.837 368.857C671.653 368.615 672.457 368.495 673.249 368.495C674.75 368.495 675.876 368.882 676.626 369.656C677.376 370.421 677.751 371.565 677.751 373.088V381.552H675.723V380.378C675.228 380.853 674.672 381.219 674.053 381.477C673.435 381.726 672.796 381.851 672.136 381.851ZM672.457 379.954C673.043 379.954 673.62 379.808 674.189 379.517C674.766 379.226 675.278 378.814 675.723 378.281V376.084C675.302 375.818 674.824 375.61 674.288 375.46C673.752 375.31 673.241 375.235 672.754 375.235C671.831 375.235 671.101 375.448 670.565 375.872C670.029 376.288 669.761 376.858 669.761 377.582C669.761 378.315 670 378.893 670.478 379.317C670.957 379.742 671.616 379.954 672.457 379.954ZM684.635 381.552V370.692H680.85V368.794H690.572V370.692H686.787V381.552H684.635ZM694.009 381.552V368.794H696.161V377.732L702.296 368.794H704.448V381.552H702.296V372.639L696.161 381.552H694.009ZM414.561 410.978C413.819 410.978 413.192 410.828 412.681 410.528C412.17 410.229 411.733 409.863 411.37 409.43V406.833C411.667 407.508 412.083 408.032 412.619 408.406C413.163 408.772 413.712 408.956 414.264 408.956C415.204 408.956 415.93 408.523 416.441 407.657C416.952 406.792 417.208 405.668 417.208 404.287C417.208 402.789 416.957 401.636 416.454 400.829C415.959 400.022 415.229 399.618 414.264 399.618C413.786 399.618 413.357 399.718 412.978 399.918C412.598 400.118 412.273 400.363 412.001 400.654C411.729 400.946 411.518 401.225 411.37 401.491V399.044C411.716 398.67 412.153 398.341 412.681 398.058C413.209 397.767 413.835 397.621 414.561 397.621C416.037 397.621 417.208 398.208 418.074 399.381C418.948 400.555 419.385 402.19 419.385 404.287C419.385 405.66 419.191 406.85 418.804 407.857C418.424 408.856 417.872 409.625 417.146 410.166C416.429 410.707 415.567 410.978 414.561 410.978ZM406.422 410.978C405.416 410.978 404.55 410.707 403.825 410.166C403.107 409.625 402.555 408.856 402.167 407.857C401.788 406.85 401.598 405.66 401.598 404.287C401.598 402.889 401.796 401.695 402.192 400.704C402.588 399.706 403.144 398.944 403.862 398.42C404.587 397.887 405.441 397.621 406.422 397.621C407.156 397.621 407.783 397.767 408.302 398.058C408.83 398.341 409.267 398.67 409.613 399.044V401.491C409.465 401.225 409.255 400.946 408.983 400.654C408.71 400.363 408.385 400.118 408.005 399.918C407.626 399.718 407.197 399.618 406.719 399.618C405.754 399.618 405.02 400.022 404.517 400.829C404.022 401.636 403.775 402.789 403.775 404.287C403.775 405.668 404.031 406.792 404.542 407.657C405.053 408.523 405.779 408.956 406.719 408.956C407.28 408.956 407.828 408.772 408.364 408.406C408.9 408.032 409.317 407.508 409.613 406.833V409.43C409.259 409.863 408.822 410.229 408.302 410.528C407.791 410.828 407.164 410.978 406.422 410.978ZM409.415 415.696V393.926L411.568 392.903V414.673L409.415 415.696ZM428.291 410.978C426.559 410.978 425.195 410.383 424.197 409.193C423.199 407.994 422.7 406.367 422.7 404.312C422.7 402.939 422.927 401.753 423.381 400.754C423.834 399.756 424.477 398.986 425.31 398.445C426.151 397.896 427.145 397.621 428.291 397.621C429.446 397.621 430.439 397.892 431.272 398.433C432.113 398.965 432.756 399.731 433.202 400.729C433.655 401.728 433.882 402.914 433.882 404.287C433.882 405.66 433.655 406.85 433.202 407.857C432.748 408.856 432.101 409.625 431.26 410.166C430.427 410.707 429.437 410.978 428.291 410.978ZM428.291 408.956C429.355 408.956 430.188 408.544 430.79 407.72C431.4 406.888 431.705 405.743 431.705 404.287C431.705 402.822 431.4 401.678 430.79 400.854C430.188 400.03 429.355 399.618 428.291 399.618C427.219 399.618 426.382 400.03 425.78 400.854C425.178 401.67 424.877 402.822 424.877 404.312C424.877 405.768 425.178 406.908 425.78 407.732C426.382 408.548 427.219 408.956 428.291 408.956ZM440.302 410.678V399.818H436.517V397.921H446.239V399.818H442.455V410.678H440.302ZM454.478 410.978C452.747 410.978 451.382 410.383 450.384 409.193C449.386 407.994 448.887 406.367 448.887 404.312C448.887 402.939 449.114 401.753 449.568 400.754C450.021 399.756 450.664 398.986 451.497 398.445C452.338 397.896 453.332 397.621 454.478 397.621C455.633 397.621 456.626 397.892 457.459 398.433C458.3 398.965 458.944 399.731 459.389 400.729C459.842 401.728 460.069 402.914 460.069 404.287C460.069 405.66 459.842 406.85 459.389 407.857C458.935 408.856 458.288 409.625 457.447 410.166C456.614 410.707 455.624 410.978 454.478 410.978ZM454.478 408.956C455.542 408.956 456.375 408.544 456.977 407.72C457.587 406.888 457.892 405.743 457.892 404.287C457.892 402.822 457.587 401.678 456.977 400.854C456.375 400.03 455.542 399.618 454.478 399.618C453.406 399.618 452.569 400.03 451.967 400.854C451.365 401.67 451.064 402.822 451.064 404.312C451.064 405.768 451.365 406.908 451.967 407.732C452.569 408.548 453.406 408.956 454.478 408.956ZM464.039 410.678V397.921H471.684V399.818H466.192V410.678H464.039ZM475.116 415.746V397.921H477.268V398.994C478.175 398.079 479.255 397.621 480.509 397.621C481.581 397.621 482.504 397.892 483.28 398.433C484.063 398.973 484.665 399.743 485.085 400.742C485.514 401.74 485.729 402.922 485.729 404.287C485.729 405.652 485.514 406.838 485.085 407.845C484.657 408.843 484.051 409.617 483.267 410.166C482.492 410.707 481.573 410.978 480.509 410.978C479.841 410.978 479.239 410.857 478.703 410.616C478.167 410.366 477.689 409.987 477.268 409.48V414.723L475.116 415.746ZM480.237 408.956C481.3 408.956 482.113 408.552 482.673 407.745C483.242 406.937 483.527 405.785 483.527 404.287C483.527 402.847 483.23 401.711 482.636 400.879C482.043 400.039 481.243 399.618 480.237 399.618C479.594 399.618 479.016 399.768 478.505 400.068C477.994 400.367 477.581 400.792 477.268 401.341V407.233C477.705 407.807 478.171 408.24 478.666 408.531C479.161 408.814 479.684 408.956 480.237 408.956ZM493.429 410.978C492.06 410.978 490.984 410.595 490.2 409.829C489.417 409.064 489.025 408.015 489.025 406.684C489.025 405.827 489.219 405.082 489.607 404.449C489.994 403.817 490.543 403.33 491.252 402.989C491.961 402.639 492.794 402.464 493.75 402.464C494.369 402.464 494.946 402.535 495.482 402.677C496.026 402.81 496.538 403.014 497.016 403.288V402.39C497.016 401.399 496.793 400.675 496.348 400.218C495.903 399.752 495.21 399.519 494.27 399.519C493.668 399.519 493.041 399.631 492.39 399.856C491.747 400.08 491.145 400.392 490.584 400.792L489.965 398.969C490.6 398.545 491.322 398.216 492.13 397.983C492.946 397.742 493.75 397.621 494.542 397.621C496.043 397.621 497.168 398.008 497.919 398.782C498.669 399.548 499.044 400.692 499.044 402.215V410.678H497.016V409.505C496.521 409.979 495.964 410.345 495.346 410.603C494.727 410.853 494.088 410.978 493.429 410.978ZM493.75 409.08C494.336 409.08 494.913 408.935 495.482 408.643C496.059 408.352 496.571 407.94 497.016 407.408V405.211C496.595 404.944 496.117 404.736 495.581 404.587C495.045 404.437 494.534 404.362 494.047 404.362C493.124 404.362 492.394 404.574 491.858 404.998C491.322 405.415 491.054 405.985 491.054 406.709C491.054 407.441 491.293 408.019 491.771 408.444C492.25 408.868 492.909 409.08 493.75 409.08ZM515.674 410.978C514.932 410.978 514.305 410.828 513.794 410.528C513.282 410.229 512.845 409.863 512.482 409.43V406.833C512.779 407.508 513.196 408.032 513.732 408.406C514.276 408.772 514.824 408.956 515.377 408.956C516.317 408.956 517.043 408.523 517.554 407.657C518.065 406.792 518.321 405.668 518.321 404.287C518.321 402.789 518.069 401.636 517.566 400.829C517.071 400.022 516.342 399.618 515.377 399.618C514.899 399.618 514.47 399.718 514.09 399.918C513.711 400.118 513.385 400.363 513.113 400.654C512.841 400.946 512.631 401.225 512.482 401.491V399.044C512.829 398.67 513.266 398.341 513.794 398.058C514.321 397.767 514.948 397.621 515.674 397.621C517.15 397.621 518.321 398.208 519.187 399.381C520.061 400.555 520.498 402.19 520.498 404.287C520.498 405.66 520.304 406.85 519.916 407.857C519.537 408.856 518.985 409.625 518.259 410.166C517.542 410.707 516.68 410.978 515.674 410.978ZM507.535 410.978C506.529 410.978 505.663 410.707 504.937 410.166C504.22 409.625 503.667 408.856 503.28 407.857C502.9 406.85 502.711 405.66 502.711 404.287C502.711 402.889 502.909 401.695 503.305 400.704C503.7 399.706 504.257 398.944 504.974 398.42C505.7 397.887 506.554 397.621 507.535 397.621C508.269 397.621 508.895 397.767 509.415 398.058C509.943 398.341 510.38 398.67 510.726 399.044V401.491C510.578 401.225 510.367 400.946 510.095 400.654C509.823 400.363 509.497 400.118 509.118 399.918C508.739 399.718 508.31 399.618 507.832 399.618C506.867 399.618 506.133 400.022 505.63 400.829C505.135 401.636 504.888 402.789 504.888 404.287C504.888 405.668 505.143 406.792 505.655 407.657C506.166 408.523 506.892 408.956 507.832 408.956C508.392 408.956 508.941 408.772 509.477 408.406C510.013 408.032 510.429 407.508 510.726 406.833V409.43C510.371 409.863 509.934 410.229 509.415 410.528C508.904 410.828 508.277 410.978 507.535 410.978ZM510.528 415.696V393.926L512.68 392.903V414.673L510.528 415.696ZM524.386 410.678V397.921H526.539V410.678H524.386ZM525.45 395.599C525.079 395.599 524.762 395.47 524.498 395.212C524.242 394.946 524.114 394.625 524.114 394.251C524.114 393.86 524.242 393.531 524.498 393.265C524.762 392.99 525.079 392.853 525.45 392.853C525.838 392.853 526.159 392.99 526.415 393.265C526.679 393.531 526.811 393.86 526.811 394.251C526.811 394.625 526.679 394.946 526.415 395.212C526.159 395.47 525.838 395.599 525.45 395.599ZM542.739 410.978C541.181 410.978 539.903 410.483 538.905 409.492C537.915 408.494 537.346 407.083 537.198 405.261H533.289V410.678H531.137V397.921H533.289V403.288H537.198C537.363 401.499 537.94 400.109 538.93 399.119C539.927 398.12 541.197 397.621 542.739 397.621C543.869 397.621 544.85 397.883 545.683 398.408C546.524 398.932 547.176 399.693 547.637 400.692C548.099 401.682 548.33 402.881 548.33 404.287C548.33 406.384 547.823 408.023 546.809 409.205C545.794 410.387 544.438 410.978 542.739 410.978ZM542.739 408.956C543.803 408.956 544.636 408.544 545.238 407.72C545.848 406.888 546.153 405.743 546.153 404.287C546.153 402.839 545.852 401.699 545.25 400.867C544.657 400.034 543.82 399.618 542.739 399.618C541.667 399.618 540.83 400.03 540.228 400.854C539.626 401.67 539.325 402.822 539.325 404.312C539.325 405.76 539.626 406.896 540.228 407.72C540.83 408.544 541.667 408.956 542.739 408.956ZM563.357 410.978C561.625 410.978 560.26 410.383 559.263 409.193C558.265 407.994 557.766 406.367 557.766 404.312C557.766 402.939 557.993 401.753 558.446 400.754C558.9 399.756 559.543 398.986 560.376 398.445C561.217 397.896 562.211 397.621 563.357 397.621C564.511 397.621 565.505 397.892 566.338 398.433C567.179 398.965 567.822 399.731 568.267 400.729C568.721 401.728 568.948 402.914 568.948 404.287C568.948 405.66 568.721 406.85 568.267 407.857C567.814 408.856 567.166 409.625 566.325 410.166C565.492 410.707 564.503 410.978 563.357 410.978ZM563.357 408.956C564.42 408.956 565.253 408.544 565.855 407.72C566.466 406.888 566.771 405.743 566.771 404.287C566.771 402.822 566.466 401.678 565.855 400.854C565.253 400.03 564.42 399.618 563.357 399.618C562.285 399.618 561.448 400.03 560.846 400.854C560.244 401.67 559.943 402.822 559.943 404.312C559.943 405.768 560.244 406.908 560.846 407.732C561.448 408.548 562.285 408.956 563.357 408.956ZM577.864 410.978C576.734 410.978 575.749 410.716 574.908 410.191C574.075 409.667 573.427 408.91 572.966 407.919C572.504 406.921 572.273 405.718 572.273 404.312V402.589C572.273 400.8 572.43 399.319 572.743 398.145C573.065 396.972 573.514 396.044 574.091 395.362C574.668 394.671 575.357 394.168 576.157 393.851C576.957 393.527 577.839 393.327 578.804 393.252L583.232 392.903L581.995 394.975L578.779 395.249C577.93 395.324 577.229 395.487 576.676 395.736C576.132 395.986 575.691 396.377 575.353 396.91C575.023 397.434 574.755 398.145 574.549 399.044C574.516 399.202 574.483 399.34 574.45 399.456C574.425 399.564 574.4 399.668 574.376 399.768C574.442 399.643 574.508 399.519 574.574 399.394C574.648 399.261 574.722 399.144 574.796 399.044C575.167 398.578 575.629 398.225 576.182 397.983C576.734 397.742 577.361 397.621 578.062 397.621C579.125 397.621 580.061 397.883 580.869 398.408C581.678 398.932 582.308 399.693 582.762 400.692C583.224 401.682 583.455 402.881 583.455 404.287C583.455 405.685 583.224 406.883 582.762 407.882C582.3 408.881 581.649 409.646 580.808 410.179C579.975 410.711 578.993 410.978 577.864 410.978ZM577.864 408.956C578.928 408.956 579.76 408.544 580.362 407.72C580.973 406.888 581.278 405.743 581.278 404.287C581.278 402.839 580.977 401.699 580.375 400.867C579.781 400.034 578.944 399.618 577.864 399.618C576.792 399.618 575.955 400.03 575.353 400.854C574.751 401.67 574.45 402.822 574.45 404.312C574.45 405.76 574.751 406.896 575.353 407.72C575.955 408.544 576.792 408.956 577.864 408.956ZM587.009 400.018L586.563 393.202H589.235L588.765 400.018H587.009ZM597.593 410.978C595.985 410.978 594.707 410.395 593.758 409.23C592.818 408.057 592.348 406.417 592.348 404.312C592.348 402.215 592.822 400.575 593.771 399.394C594.727 398.212 596.034 397.621 597.692 397.621C598.747 397.621 599.658 397.867 600.425 398.358C601.2 398.84 601.765 399.568 602.12 400.542L600.091 401.291C599.91 400.825 599.621 400.417 599.225 400.068C598.838 399.718 598.335 399.544 597.716 399.544C596.999 399.544 596.405 399.743 595.935 400.143C595.465 400.534 595.111 401.087 594.871 401.803C594.641 402.519 594.525 403.355 594.525 404.312C594.525 405.277 594.645 406.114 594.884 406.821C595.123 407.52 595.473 408.061 595.935 408.444C596.397 408.818 596.966 409.005 597.642 409.005C598.277 409.005 598.817 408.831 599.263 408.481C599.716 408.123 600.034 407.657 600.215 407.083L602.219 407.757C601.914 408.781 601.357 409.575 600.549 410.141C599.741 410.699 598.755 410.978 597.593 410.978ZM593.313 405.236V403.338H599.25V405.236H593.313ZM607.09 409.23V406.359L613.695 397.921H616.12L607.09 409.23ZM606.002 410.678V397.921H608.154V410.678H606.002ZM614.71 410.678L610.677 403.164L612.112 401.391L617.134 410.678H614.71ZM622.983 410.678V399.818H619.198V397.921H628.92V399.818H625.135V410.678H622.983ZM634.169 415.521L636.098 410.354L631.423 397.921H633.575L636.717 406.609C636.807 406.833 636.881 407.037 636.939 407.22C636.997 407.403 637.055 407.607 637.112 407.832C637.178 407.607 637.24 407.403 637.298 407.22C637.356 407.037 637.426 406.833 637.508 406.609L640.699 397.921H642.901L636.346 415.521H634.169Z" fill="white"/>
<g opacity="0.5">
<path d="M523.031 247.015C513.163 247.015 505.164 255.088 505.164 265.046C505.164 275.004 513.163 283.076 523.031 283.076C532.897 283.076 540.898 275.004 540.898 265.046C540.898 255.088 532.897 247.015 523.031 247.015ZM500.697 265.046C500.697 252.598 510.696 242.508 523.031 242.508C535.365 242.508 545.364 252.598 545.364 265.046C545.364 277.493 535.365 287.584 523.031 287.584C510.696 287.584 500.697 277.493 500.697 265.046ZM513.635 255.564C514.507 254.684 515.921 254.684 516.793 255.564L523.031 261.858L529.267 255.564C530.141 254.684 531.553 254.684 532.427 255.564C533.299 256.444 533.299 257.871 532.427 258.751L526.189 265.046L532.427 271.341C533.299 272.221 533.299 273.648 532.427 274.528C531.553 275.408 530.141 275.408 529.267 274.528L523.031 268.233L516.793 274.528C515.921 275.408 514.507 275.408 513.635 274.528C512.763 273.648 512.763 272.221 513.635 271.341L519.872 265.046L513.635 258.751C512.763 257.871 512.763 256.444 513.635 255.564Z" fill="white"/>
</g>
</svg>
